<svg fill="none" height="16" viewBox="0 0 16 16" width="16" xmlns="http://www.w3.org/2000/svg"><path clip-rule="evenodd" d="m5 0h6c2.761 0 5 2.239 5 5v6c0 2.761-2.239 5-5 5h-6c-2.761 0-5-2.239-5-5v-6c0-2.761 2.239-5 5-5zm6 14.5c1.93 0 3.5-1.57 3.5-3.5v-6c0-1.93-1.57-3.5-3.5-3.5h-6c-1.93 0-3.5 1.57-3.5 3.5v6c0 1.93 1.57 3.5 3.5 3.5zm-7-6.5c0-2.209 1.791-4 4-4s4 1.791 4 4-1.791 4-4 4-4-1.791-4-4zm1.5 0c0 1.378 1.122 2.5 2.5 2.5s2.5-1.122 2.5-2.5c0-1.379-1.122-2.5-2.5-2.5s-2.5 1.121-2.5 2.5zm7.333-4.3c0 .29437-.2386.533-.533.533-.2943 0-.533-.23863-.533-.533 0-.29436.2387-.533.533-.533.2944 0 .533.23864.533.533z" fill="#b0b8bc" fill-rule="evenodd"/></svg>