<svg fill="none" height="16" viewBox="0 0 16 16" width="16" xmlns="http://www.w3.org/2000/svg"><path clip-rule="evenodd" d="m3.5 1.75c0 .9665-.7835 1.75-1.75 1.75-.966498 0-1.75-.7835-1.75-1.75 0-.966498.783502-1.75 1.75-1.75.9665 0 1.75.783502 1.75 1.75zm-3.5 3.25h3.578v11h-3.578zm13.2998.12119c-.0044-.00146-.0089-.00294-.0134-.00441-.0248-.00822-.0497-.01645-.0764-.02378-.048-.011-.096-.02-.145-.028-.19-.038-.398-.065-.642-.065-2.086 0-3.409 1.517-3.845 2.103v-2.103h-3.578v11h3.578v-6s2.704-3.766 3.845-1v7h3.577v-7.423c0-1.662-1.139-3.047-2.676-3.448-.0081-.00257-.0162-.00518-.0242-.00781z" fill="#b0b8bc" fill-rule="evenodd"/></svg>