<svg fill="none" height="16" viewBox="0 0 16 16" width="16" xmlns="http://www.w3.org/2000/svg"><path clip-rule="evenodd" d="m13.456 2.75875c.959.054 1.43.196 1.864.968.452.771.68 2.099.68 4.438v.003.005c0 2.32795-.228 3.66595-.679 4.42895-.434.772-.905.912-1.864.977-.959.055-3.368.088-5.455.088-2.091 0-4.501-.033-5.459-.089-.957-.065-1.428-.205-1.866-.977-.447-.763-.677-2.101-.677-4.42895v-.002-.003-.003c0-2.338.23-3.666.677-4.437.438-.773.91-.914 1.867-.969.957-.064 3.367-.091 5.458-.091 2.087 0 4.496.027 5.454.092zm-2.456 5.408-5-3v5.99995z" fill="#b0b8bc" fill-rule="evenodd"/></svg>