<svg fill="none" height="780" viewBox="0 0 646 780" width="646" xmlns="http://www.w3.org/2000/svg" xmlns:xlink="http://www.w3.org/1999/xlink"><linearGradient id="a"><stop offset="0" stop-color="#010101" stop-opacity=".01"/><stop offset=".95" stop-color="#010101"/></linearGradient><linearGradient id="b" gradientUnits="userSpaceOnUse" x1="151.402" x2="216.156" xlink:href="#a" y1="315.166" y2="186.6"/><linearGradient id="c" gradientUnits="userSpaceOnUse" x1="206.563" x2="299.417" xlink:href="#a" y1="311.365" y2="129.775"/><linearGradient id="d" gradientUnits="userSpaceOnUse" x1="326.545" x2="463.899" xlink:href="#a" y1="320.092" y2="9.94817"/><linearGradient id="e"><stop offset="0" stop-color="#010101" stop-opacity=".01"/><stop offset=".36" stop-color="#010101" stop-opacity=".36"/><stop offset=".95" stop-color="#010101"/></linearGradient><linearGradient id="f" gradientUnits="userSpaceOnUse" x1="454.379" x2="659.309" xlink:href="#e" y1="336.583" y2="-110.821"/><linearGradient id="g"><stop offset="0" stop-color="#fff" stop-opacity=".01"/><stop offset=".07" stop-color="#fff" stop-opacity=".22"/><stop offset=".16" stop-color="#fff" stop-opacity=".45"/><stop offset=".25" stop-color="#fff" stop-opacity=".65"/><stop offset=".33" stop-color="#fff" stop-opacity=".8"/><stop offset=".4" stop-color="#fff" stop-opacity=".91"/><stop offset=".46" stop-color="#fff" stop-opacity=".98"/><stop offset=".51" stop-color="#fff"/></linearGradient><linearGradient id="h" gradientUnits="userSpaceOnUse" x1="305.726" x2="422.886" xlink:href="#g" y1="231.564" y2="-10.0312"/><linearGradient id="i" gradientUnits="userSpaceOnUse" x1="227.65" x2="291.846" xlink:href="#g" y1="178.444" y2="42.5549"/><linearGradient id="j" gradientUnits="userSpaceOnUse" x1="532.972" x2="543.393" xlink:href="#a" y1="641.322" y2="514.584"/><linearGradient id="k" gradientUnits="userSpaceOnUse" x1="131.259" x2="128.544" xlink:href="#g" y1="178.517" y2="628.071"/><linearGradient id="l" gradientUnits="userSpaceOnUse" x1="-122.395" x2="-122.295" xlink:href="#a" y1="616.073" y2="758.306"/><linearGradient id="m" gradientUnits="userSpaceOnUse" x1="1030.02" x2="1064.2" xlink:href="#g" y1="361.966" y2="-45.145"/><linearGradient id="n" gradientUnits="userSpaceOnUse" x1="203.138" x2="341.145" xlink:href="#g" y1="251.87" y2="620.142"/><linearGradient id="o" gradientUnits="userSpaceOnUse" x1="306.668" x2="303.343" xlink:href="#g" y1="274.99" y2="557.698"/><linearGradient id="p" gradientUnits="userSpaceOnUse" x1="622.503" x2="641.69" xlink:href="#a" y1="466.704" y2="-111.215"/><linearGradient id="q" gradientUnits="userSpaceOnUse" x1="621.651" x2="640.838" xlink:href="#a" y1="467.045" y2="-110.875"/><linearGradient id="r" gradientUnits="userSpaceOnUse" x1="527.472" x2="546.688" xlink:href="#a" y1="464.354" y2="-113.565"/><linearGradient id="s" gradientUnits="userSpaceOnUse" x1="526.62" x2="545.836" xlink:href="#a" y1="464.694" y2="-113.224"/><linearGradient id="t" gradientUnits="userSpaceOnUse" x1="620.712" x2="639.928" xlink:href="#a" y1="468.545" y2="-109.373"/><linearGradient id="u" gradientUnits="userSpaceOnUse" x1="526.682" x2="545.87" xlink:href="#a" y1="466.236" y2="-111.683"/><linearGradient id="v" gradientUnits="userSpaceOnUse" x1="574.672" x2="593.888" xlink:href="#a" y1="467.396" y2="-110.501"/><linearGradient id="w" gradientUnits="userSpaceOnUse" x1="576.488" x2="595.704" xlink:href="#a" y1="464.843" y2="-113.075"/><linearGradient id="x" gradientUnits="userSpaceOnUse" x1="231.41" x2="463.643" xlink:href="#g" y1="479.399" y2="696.094"/><linearGradient id="y" gradientUnits="userSpaceOnUse" x1="580.277" x2="578.492" xlink:href="#g" y1="259.864" y2="395.026"/><linearGradient id="z" gradientUnits="userSpaceOnUse" x1="580.277" x2="578.492" xlink:href="#g" y1="369.864" y2="505.026"/><linearGradient id="A" gradientUnits="userSpaceOnUse" x1="216.437" x2="216.42" xlink:href="#g" y1="295.281" y2="313.481"/><linearGradient id="B" gradientUnits="userSpaceOnUse" x1="135.737" x2="249.168" xlink:href="#a" y1="348.052" y2="258.635"/><linearGradient id="C" gradientUnits="userSpaceOnUse" x1="185.575" x2="346.852" xlink:href="#a" y1="367.988" y2="242.867"/><linearGradient id="D" gradientUnits="userSpaceOnUse" x1="290.519" x2="546.684" xlink:href="#a" y1="426.751" y2="204.028"/><linearGradient id="E" gradientUnits="userSpaceOnUse" x1="399.279" x2="774.962" xlink:href="#e" y1="495.865" y2="177.45"/><linearGradient id="F" gradientUnits="userSpaceOnUse" x1="247.537" x2="430.477" xlink:href="#g" y1="258.751" y2="127.322"/><linearGradient id="G" gradientUnits="userSpaceOnUse" x1="261.151" x2="377.009" xlink:href="#g" y1="256.517" y2="160.658"/><linearGradient id="H" gradientUnits="userSpaceOnUse" x1="126.738" x2="164.923" xlink:href="#g" y1="422.745" y2="422.767"/><linearGradient id="I" gradientUnits="userSpaceOnUse" x1="53.4458" x2="65.0971" xlink:href="#a" y1="325.2" y2="363.932"/><linearGradient id="J" gradientUnits="userSpaceOnUse" x1="78.2439" x2="179.146" xlink:href="#a" y1="473.933" y2="475.976"/><linearGradient id="K" gradientUnits="userSpaceOnUse" x1="481.015" x2="384.922" xlink:href="#a" y1="631.512" y2="466.732"/><linearGradient id="L" gradientUnits="userSpaceOnUse" x1="482.037" x2="309.151" xlink:href="#a" y1="169.892" y2="174.761"/><path d="m183.078 688.613c-46.449 4.67-94.3235 9.806-135.1969 32.651-5.4707 3.064-11.0253 6.678-14.0436 12.194-6.0577 11.095.8174 25.719 11.4864 32.397s23.8324 7.439 36.3878 7.989c223.5673 9.742 447.4693 5.917 671.2253 2.113 64.978-1.099 130.983-2.367 193.258-21.239 11.193-3.381 23.497-8.453 27.71-19.506 5.512-14.455-7.064-30.475-21.736-34.976-14.673-4.501-30.331-1.141-45.506.824-52.695 6.826-105.852-3.614-158.317-11.961-102.707-16.315-209.271-29.587-313.299-32.06-35.466-.824-65.754 11.476-100.465 16.337-50.117 7.058-101.115 10.165-151.504 15.237z" fill="#505f98" opacity=".24"/><path d="m.368814 255.326 115.829186-235.9177 68.987 33.7814-115.8299 235.9183z" fill="#fff"/><path d="m27.2139 248.055 14.1134-28.835 46.4642 22.683-14.1135 28.835z" fill="#505f98"/><path d="m27.2139 248.055 14.1134-28.835 46.4642 22.683-14.1135 28.835z" fill="url(#b)"/><path d="m41.3295 219.445 14.1134-28.835 46.4641 22.683-14.1134 28.835z" fill="#505f98"/><path d="m41.3295 219.445 14.1134-28.835 46.4641 22.683-14.1134 28.835z" fill="url(#c)"/><path d="m55.4261 190.826 14.1135-28.835 46.4644 22.683-14.114 28.835z" fill="#505f98"/><path d="m55.4261 190.826 14.1135-28.835 46.4644 22.683-14.114 28.835z" fill="url(#d)"/><path d="m69.5625 162.237 14.1135-28.835 46.464 22.683-14.113 28.835z" fill="#505f98"/><path d="m69.5625 162.237 14.1135-28.835 46.464 22.683-14.113 28.835z" fill="url(#f)"/><g fill="#505f98"><path d="m83.6685 133.599 14.1134-28.835 46.4641 22.683-14.113 28.835z"/><path d="m97.7839 105.01 14.1131-28.8346 46.465 22.6824-14.114 28.8352z"/><path d="m111.881 76.3912 14.113-28.8349 46.464 22.6824-14.113 28.8349z"/></g><path d="m96.1959 108.598 14.1131-28.8347 46.465 22.6827-14.114 28.835z" fill="url(#h)"/><path d="m110.321 79.9695 14.113-28.8349 46.464 22.6824-14.113 28.835z" fill="url(#i)"/><path d="m410.837 573h98.0679v82h-98.0679z" fill="#505f98"/><path d="m410.837 573h98.0679v82h-98.0679z" fill="url(#j)"/><rect fill="#505f98" height="355" rx="9.37" width="518.359" x="202.693" y="231"/><path d="m704.04 260.438v294.124c.017 4.881-1.907 9.567-5.347 13.026s-8.114 5.406-12.99 5.412h-451.664c-4.874-.011-9.545-1.96-12.983-5.418-3.439-3.457-5.365-8.141-5.354-13.02v-294.124c-.011-4.879 1.915-9.563 5.354-13.02 3.438-3.458 8.109-5.407 12.983-5.418h451.664c4.876.006 9.55 1.953 12.99 5.412s5.364 8.145 5.347 13.026z" fill="url(#k)" opacity=".65"/><path d="m365.806 645h206.143v21h-206.143z" fill="#505f98"/><path d="m410.837 633h98.0679v12h-98.0679z" fill="url(#l)"/><path clip-rule="evenodd" d="m565.945 59.2411v20.4734l-12.71.1048c-1.236 9.5263-4.86 18.5911-10.538 26.3617l10.855 11.17-14.88 14.249-10.686-11.022c-6.589 4.484-14.024 7.592-21.856 9.136v13.286h-20.571v-12.971c-8.785-1.269-17.157-4.532-24.47-9.535l-8.936 8.822-14.564-14.669 8.873-8.654c-5.586-7.7737-9.149-16.802-10.37-26.2785h-14.247v-20.4734h14.753c1.829-8.1478 5.426-15.8002 10.538-22.4224l-8.24-8.4869 14.88-14.2497 8.43 8.7384c6.97-4.6062 14.894-7.5929 23.184-8.7384v-14.0821h20.571v14.3964c8.369 1.6581 16.278 5.0966 23.184 10.0796l10.538-10.3101 14.48 14.5431-10.538 10.4777c4.131 6.0804 7.064 12.8858 8.641 20.0544zm-106.142 12.9085c-.023 19.0614 15.5 34.5324 34.671 34.5554 9.212.028 18.055-3.592 24.577-10.0605 6.521-6.4683 10.184-15.2523 10.178-24.4111.024-19.0613-15.499-34.5323-34.67-34.5554-19.172-.0232-34.732 15.4103-34.756 34.4716z" fill="#505f98" fill-rule="evenodd"/><path clip-rule="evenodd" d="m641.997 93.3542-.918 12.0418-7.513-.458c-1.126 5.537-3.631 10.703-7.283 15.02l5.864 7.063-9.349 7.708-5.759-6.937c-4.055 2.338-8.541 3.833-13.189 4.396l-.605 7.812-12.041-.896.584-7.625c-5.085-1.135-9.841-3.423-13.898-6.687l-5.634 4.791-7.868-9.187 5.572-4.708c-2.928-4.812-4.614-10.274-4.904-15.8963l-8.118-.625.898-12.0209 8.618.6459c1.424-4.7063 3.851-9.0489 7.116-12.7292l-4.445-5.3542 9.349-7.7083 4.529 5.5c4.271-2.405 9.026-3.8285 13.919-4.1667l.626-8.3333 12.041.8958-.647 8.4792c4.807 1.3388 9.265 3.7061 13.063 6.9375l6.616-5.6042 7.846 9.1875-6.678 5.6875c2.167 3.7554 3.584 7.8941 4.174 12.1875zm-62.697 2.8887c-.855 11.1931 7.537 20.9601 18.749 21.8191 5.394.425 10.735-1.315 14.84-4.834 4.105-3.52 6.635-8.528 7.03-13.9155.842-11.1939-7.561-20.9516-18.773-21.7989-11.212-.8474-20.991 7.5364-21.846 18.7293z" fill="#505f98" fill-rule="evenodd"/><path d="m704.04 260.513v6.487h-488.338v-6.487c-.011-4.899 1.915-9.601 5.354-13.073s8.11-5.429 12.985-5.44h451.66c4.877.006 9.551 1.961 12.991 5.434 3.441 3.473 5.365 8.179 5.348 13.079z" fill="url(#m)"/><path d="m225.709 299h47.0326v227h-47.0326z" fill="url(#n)"/><path d="m343.791 315h221.153v209h-221.153z" fill="url(#o)"/><path d="m394.826 413h7.00485v9h-7.00485z" fill="url(#p)"/><path d="m394.826 371h7.00485v9h-7.00485z" fill="url(#q)"/><path d="m299.76 413h7.00485v9h-7.00485z" fill="url(#r)"/><path d="m299.76 371h7.00485v9h-7.00485z" fill="url(#s)"/><path d="m394.826 326h7.00485v9h-7.00485z" fill="url(#t)"/><path d="m300.761 326h7.00485v9h-7.00485z" fill="url(#u)"/><path d="m348.794 326h7.00485v9h-7.00485z" fill="url(#v)"/><path d="m348.794 413h7.00485v9h-7.00485z" fill="url(#w)"/><path clip-rule="evenodd" d="m312.769 411h78.054v-73h-78.054zm70.192-7.718h-62.33v-57.626h62.33z" fill="#505f98" fill-rule="evenodd"/><path clip-rule="evenodd" d="m312.769 411h78.054v-73h-78.054zm70.192-7.718h-62.33v-57.626h62.33z" fill="url(#x)" fill-rule="evenodd"/><path d="m596.966 279h100.069v100h-100.069z" fill="url(#y)"/><path d="m596.966 389h100.069v100h-100.069z" fill="url(#z)"/><path d="m225.709 298h47.0326v13h-47.0326z" fill="url(#A)" opacity=".65"/><path d="m22.6729 229.827 205.1281-164.5343 48.113 59.8253-205.1287 164.534z" fill="#fff"/><path d="m51.3965 234.455 25.0675-20.22 32.582 40.287-25.0671 20.22z" fill="#505f98"/><path d="m51.3965 234.455 25.0675-20.22 32.582 40.287-25.0671 20.22z" fill="url(#B)"/><path d="m75.0144 214.689 25.0326-20.129 32.434 40.23-25.032 20.129z" fill="#505f98"/><path d="m75.0144 214.689 25.0326-20.129 32.434 40.23-25.032 20.129z" fill="url(#C)"/><path d="m99.9583 194.761 25.0317-20.128 32.435 40.23-25.032 20.128z" fill="#505f98"/><path d="m99.9583 194.761 25.0317-20.128 32.435 40.23-25.032 20.128z" fill="url(#D)"/><path d="m124.886 174.847 25.032-20.129 32.435 40.23-25.032 20.129z" fill="#505f98"/><path d="m124.886 174.847 25.032-20.129 32.435 40.23-25.032 20.129z" fill="url(#E)"/><path d="m151.006 154.389 25.067-20.22 32.583 40.287-25.068 20.22z" fill="#505f98"/><path d="m176.086 133.99 25.068-20.22 32.582 40.287-25.068 20.22z" fill="#505f98"/><path d="m199.693 115.051 25.033-20.1284 32.435 40.2304-25.033 20.128z" fill="#505f98"/><path d="m229.712 158.218-21.099 16.782-31.938-40.218 21.099-16.782z" fill="url(#F)"/><path d="m196.736 117.648 25.032-20.129 32.435 40.23-25.032 20.129z" fill="url(#G)"/><path d="m145.653 239.15v122.85h-21.014v-122.85c0-4.54 2.818-8.58 7.018-10.061v-12.264c0-2.113 1.676-3.825 3.743-3.825 2.068 0 3.744 1.712 3.744 3.825v12.472c3.919 1.638 6.488 5.526 6.509 9.853z" fill="#505f98"/><path d="m145.653 239.15v122.85h-21.014v-122.85c0-4.54 2.818-8.58 7.018-10.061v-12.264c0-2.113 1.676-3.825 3.743-3.825 2.068 0 3.744 1.712 3.744 3.825v12.472c3.919 1.638 6.488 5.526 6.509 9.853z" fill="url(#H)"/><rect fill="#505f98" height="9" rx="2.245" width="50.0346" x="111.63" y="317"/><path d="m136.336 399c-8.573 0-15.7-12.815-15.7-21.366v-56.634h31.022v56.634c0 8.551-6.771 21.366-15.322 21.366z" fill="#505f98"/><rect fill="url(#I)" height="9" rx="2.245" width="50.0346" x="111.63" y="317"/><path d="m136.336 399c-8.573 0-15.7-12.634-15.7-21.063v-51.937h31.022v51.937c0 8.429-6.771 21.063-15.322 21.063z" fill="url(#J)"/><path d="m336.428 459c-.674-3.564-1.099-8.61.195-8.957 2.728-.768-.195 8.957-.195 8.957z" fill="#28353d"/><path d="m479.687 654.507c-.486 12.595-10.248 58.881-10.565 71.497 0 4.198 1.12 10.643-.233 14.694-2.789 8.586-12.678 7.41-13.967 2.351l-.486-2.519c-4.586-24.518 2.789-52.332 0-84.344-1.67-19.543-9.446-57.223-14.538-57.475-2.684 0-63.941 129.14-69.266 137.096-2.621 4.01-9.995 3.38-13.566 6.613-3.571 3.232 29.752-97.905 43.719-151.35 3.258-11.031 5.382-22.361 6.339-33.818.381-6.612-1.754-8.837 4.353-10.789 4.226-1.344 10.08-.966 14.601-1.281 4.924-.378 50.714-.462 50.714 2.771-.444 17.549 4.078 77.459 2.895 106.554z" fill="#606161"/><path d="m479.687 654.507c-.486 12.595-10.248 58.881-10.565 71.497 0 4.198 1.12 10.643-.233 14.694-2.789 8.586-12.678 7.41-13.967 2.351l-.486-2.519c-4.586-24.518 2.789-52.332 0-84.344-1.67-19.543-9.446-57.223-14.538-57.475-2.684 0-63.941 129.14-69.266 137.096-2.621 4.01-9.995 3.38-13.566 6.613-3.571 3.232 29.752-97.905 43.719-151.35 3.258-11.031 5.382-22.361 6.339-33.818.381-6.612-1.754-8.837 4.353-10.789 4.226-1.344 10.08-.966 14.601-1.281 4.924-.378 50.714-.462 50.714 2.771-.444 17.549 4.078 77.459 2.895 106.554z" fill="url(#K)"/><path d="m425.614 386.148c-.385-3.985-2.268-6.148-4.108-6.148-1.839 0-2.973 2.12-2.588 6.148.087 2.974 2.331 5.449 5.305 5.852 1.862 0 1.797-1.866 1.391-5.852z" fill="#ffcd9c"/><path d="m458.008 386.159c.25-3.993 2.087-6.159 3.986-6.159s3.13 2.124 2.838 6.159c-.027 3.014-2.272 5.528-5.217 5.841-1.879 0-1.9-1.848-1.607-5.841z" fill="#ffcd9c"/><path d="m461.732 403.672c-.259 2.105-9.174 11.328-19.319 11.328-10.146 0-18.521-8.423-20.291-11.792s5.353-46.703 9.476-50.324c4.123-3.622 20.831-1.243 22.234.674 3.367 4.527 9.001 41.712 7.9 50.114z" fill="#f4ad7d"/><path d="m457.538 370.977c-1.379.662-6.795-13.135-7.931-15.452-1.135-2.317-.953-4.696.426-5.358 1.38-.662 3.408.704 4.544 3s4.32 17.169 2.961 17.81z" fill="#ffcd9c"/><path d="m427.168 369.987c-1.431-.486 2.357-14.808 3.183-17.284.826-2.475 2.68-4.104 4.03-3.617s1.914 2.898 1.088 5.395c-.826 2.496-6.951 15.993-8.301 15.506z" fill="#ffcd9c"/><path d="m432.845 402h21.763l3.262 20.622c-11.856 6.383-18.769 5.679-28.02-1.408z" fill="#f4ad7d"/><path d="m441.859 406.13c0-.38.905-.7 2.001-.7s2.001.32 2.001.7-.881.44-2.001.44-2.001-.04-2.001-.44z" fill="#f4ad7d"/><path d="m462.892 396.808c.824-4.914 2.168-40.1-1.128-44.757-3.295-4.657-23.023-7.67-26.015-6.943-6.699 1.623-5.528 6.409-5.528 6.409-1.991.03-3.941.567-5.658 1.559-2.298 1.539-7.133 23.714-3.274 40.484 1.734 7.542 8.563 14.1 20.357 14.421 14.525.384 20.249-5.085 21.246-11.173z" fill="#606161"/><path d="m435.831 346.762c1.559-1.314 3.579-1.934 5.599-1.721 6.133-.033 12.217 1.099 17.935 3.335 3.17 1.112 6.049 2.935 8.42 5.332 2.387 2.465 3.486 5.919 2.968 9.326-1.053 5.013-6.315 8.114-8.041 12.936-1.39 3.867-.4 7.605-.358 11.493.028 3.143-.198 6.283-.674 9.389-.968 6.054-6.504 11.492-20.713 11.131-11.451-.319-18.082-6.84-19.766-14.339-2.28-12.446-1.682-25.255 1.747-37.429 6.172 1.433 12.486 2.146 18.819 2.124 6.715.056 13.411-.728 19.934-2.337 1.116 6.501 1.095 19.522.737 29.251" fill="#606161"/><path d="m400.702 418.954c-3.434.287-6.742 1.43-9.625 3.326-4.938 3.891-5.313 11.15-5.229 17.468-.17 8.753.437 17.504 1.812 26.149 1.479 7.929 4.167 15.544 6.375 23.305 3.481 12.629 5.309 25.66 5.438 38.764 0 7.196-.125 15.104 4.354 20.731 4.896 6.109 13.563 7.301 21.355 7.741 11.063.648 22.167.732 33.23.271 7.417-.334 15.313-1.066 21.188-5.627 4.688-3.64 15.667-126.794 7.146-129.911s-17.688-3.912-26.73-4.665c-20.271-1.715-39.355-3.075-59.314 2.448z" fill="#505f98"/><path d="m464.521 674.291c-1.086 13.964-3.678 64.709-3.678 64.709l-6.605-.23c-4.536-24.38 2.759-52.038 0-83.871-1.652-19.434-9.343-56.903-14.381-57.153 1.505-12.525 9.97-10.646 9.97-10.646 6.157 9.194 11.467 18.926 15.865 29.078 5.037 13.192-.063 44.085-1.171 58.113z" fill="url(#L)"/><g fill="#505f98"><path d="m340.164 740.024c-1.031.762-1.814 1.806-2.251 3.001-.235.984-.14 2.015.271 2.94 1.166 2.361 3.376 4.054 5.984 4.585 2.576.49 5.215.581 7.819.268l8.341-.556c2.122-.05 4.227-.389 6.255-1.007 2.031-.628 3.706-2.057 4.629-3.947.492-1.392.683-2.87.563-4.339 0-6.805-2.418-12.335-9.967-10.67-7.906 1.466-15.334 4.803-21.644 9.725z"/><path d="m478.703 743.063c.947.696 1.666 1.646 2.067 2.734.214.885.13 1.814-.24 2.649-1.062 2.138-3.092 3.668-5.483 4.133-2.357.456-4.774.542-7.159.255l-7.572-.509c-1.926-.041-3.838-.34-5.68-.89-1.857-.571-3.386-1.869-4.221-3.582-.448-1.258-.626-2.593-.522-3.921 0-6.147 2.176-11.212 9.117-9.644 7.196 1.331 13.954 4.342 19.693 8.775z"/><path d="m487.891 421s32.715 19.163 42.541 43.389c9.825 24.225-32.18 82.611-32.18 82.611l-8.989-9.186s21.925-44.055 18.536-55.074c-3.39-11.019-16.669-21.288-16.669-21.288z"/><path d="m394.826 458.859s-45.488 20.381-63.973 10.379c-18.485-10.001.545-60.238.545-60.238l12.379 4.202s-10.344 25.613 1.49 29.416 47.293-21.18 47.293-21.18z"/></g><path d="m480.466 545.976c-1.308.85-2.369 1.992-3.085 3.321-.429 1.128-.584 2.332-.453 3.522-.079 2.89 1.235 5.66 3.582 7.548 1.648.883 3.495 1.393 5.393 1.49 1.163.191 2.353.191 3.516 0 1.187-.211 2.178-.969 2.632-2.013.155-.661.22-1.337.194-2.013.151-3.321 2.654-6.038 4.725-8.755.5-.525.823-1.176.927-1.872-.012-.77-.3-1.514-.819-2.113-1.403-1.892-4.876-5.374-7.659-5.073-2.783.302-6.795 4.308-8.953 5.958z" fill="#f4ad7d"/><path d="m351.585 401.435c.593-.824.997-1.756 1.187-2.737.151-1.015-.386-2.011-1.341-2.487-1.516-.564-3.317.919-4.811.293-.506-.269-.93-.658-1.231-1.129-1.764-2.43-2.776-5.282-2.922-8.232.086-1.572-.062-3.148-.439-4.68-.445-1.577-2.028-2.614-3.735-2.445-1.407.313-2.198 1.671-3.076 2.758-.879 1.087-2.637 2.382-3.78 3.74-1.95 2.791-3.067 6.034-3.229 9.382-.616 4.179-1.011 8.963 2.065 11.972 2.373 2.319 9.601 5.057 12.919 3.824 3.669-1.379 6.548-7.25 8.393-10.259z" fill="#f4ad7d"/></svg>