<svg fill="none" height="525" viewBox="0 0 540 525" width="540" xmlns="http://www.w3.org/2000/svg"><path d="m125.187 397.963 41.813-66.122-93.6413-59.878-48.3587 76.473 77.453 49.527z" fill="#f0f0f0"/><path clip-rule="evenodd" d="m80 416.963h103v-20h-103zm101.662-1.29h-100.3243v-17.42h100.3243z" fill="#3f3d56" fill-rule="evenodd"/><g fill="#222f65"><path d="m171.5 413.963c3.59 0 6.5-2.91 6.5-6.5s-2.91-6.5-6.5-6.5-6.5 2.91-6.5 6.5 2.91 6.5 6.5 6.5z"/><path d="m151.5 413.963c3.59 0 6.5-2.91 6.5-6.5s-2.91-6.5-6.5-6.5-6.5 2.91-6.5 6.5 2.91 6.5 6.5 6.5z"/><path d="m133.5 413.963c3.59 0 6.5-2.91 6.5-6.5s-2.91-6.5-6.5-6.5-6.5 2.91-6.5 6.5 2.91 6.5 6.5 6.5z"/><path d="m114.5 413.963c3.59 0 6.5-2.91 6.5-6.5s-2.91-6.5-6.5-6.5-6.5 2.91-6.5 6.5 2.91 6.5 6.5 6.5z"/><path d="m95.5 413.963c3.5899 0 6.5-2.91 6.5-6.5s-2.9101-6.5-6.5-6.5-6.5 2.91-6.5 6.5 2.9101 6.5 6.5 6.5z"/></g><path d="m307.462 185.904v-51.075h25.538v-24.866h-125v125h106.855v-12.222c0-4.601 1.828-9.013 5.081-12.267 3.254-3.253 7.666-5.081 12.267-5.081h.797v-19.489z" fill="#f0f0f0"/><path d="m47.6495 10.5684h41v41h-41z" fill="#f0f0f0" transform="matrix(.97029573 -.2419219 .2419219 .97029573 -1.141334 11.841384)"/><path d="m362 432.963h84v17h-84z" fill="#222f65"/><path d="m340 346.963h123v16h-123z" fill="#f0f0f0"/><path d="m0 523.963h524v1h-524z" fill="#3f3d56"/><path clip-rule="evenodd" d="m331.035 524.963h152.93c9.956-.011 18.024-8.076 18.035-18.027v-283.947c-.011-9.951-8.079-18.015-18.035-18.026h-152.93c-9.956.011-18.024 8.075-18.035 18.026v283.947c.011 9.951 8.079 18.016 18.035 18.027zm-16.69-301.974c.011-9.208 7.477-16.671 16.69-16.682h152.93c9.213.011 16.679 7.474 16.69 16.682v283.947c-.011 9.209-7.477 16.672-16.69 16.682h-152.93c-9.213-.01-16.679-7.473-16.69-16.682z" fill="#3f3d56" fill-rule="evenodd"/><path clip-rule="evenodd" d="m386 214.963c0 2.209 1.791 4 4 4 2.208-.002 3.998-1.792 4-4 0-2.209-1.791-4-4-4s-4 1.791-4 4zm1.333 0c0-1.473 1.194-2.667 2.667-2.667 1.472.002 2.665 1.195 2.667 2.667 0 1.473-1.194 2.667-2.667 2.667s-2.667-1.194-2.667-2.667z" fill="#3f3d56" fill-rule="evenodd"/><path d="m400 213.963h30v1h-30z" fill="#3f3d56"/><path d="m491 223.963v54c-29.823-.001-53.999-24.177-54-54z" fill="#222f65"/><path clip-rule="evenodd" d="m325 506.963h166v-283h-166zm164.656-1.344h-163.312v-280.312h163.312z" fill="#3f3d56" fill-rule="evenodd"/><path d="m451.5 274.963c10.217 0 18.5-8.283 18.5-18.5s-8.283-18.5-18.5-18.5-18.5 8.283-18.5 18.5 8.283 18.5 18.5 18.5z" fill="#000" opacity=".1"/><path d="m448.5 276.963c10.217 0 18.5-8.283 18.5-18.5s-8.283-18.5-18.5-18.5-18.5 8.283-18.5 18.5 8.283 18.5 18.5 18.5z" fill="#222f65"/><path d="m332 234.963h26v9h-26z" fill="#3f3d56"/><path d="m346 324.963h26v9h-26z" fill="#3f3d56"/><path clip-rule="evenodd" d="m347 359.963h124v-17h-124zm122.652-1.308h-121.304v-14.384h121.304z" fill="#3f3d56" fill-rule="evenodd"/><path d="m340 397.963h123v16h-123z" fill="#f0f0f0"/><path d="m346 374.963h26v9h-26z" fill="#3f3d56"/><path clip-rule="evenodd" d="m347 410.963h124v-17h-124zm122.652-1.308h-121.304v-14.384h121.304z" fill="#3f3d56" fill-rule="evenodd"/><path clip-rule="evenodd" d="m366 445.963h85v-18h-85zm83.651-1.286h-82.302v-15.428h82.302z" fill="#3f3d56" fill-rule="evenodd"/><path d="m466 353.463c0 2.741-1.72 5.188-4.3 6.116-2.579.928-5.463.137-7.209-1.976l-.007-.006c-1.701-2.064-1.964-4.958-.664-7.295s3.899-3.638 6.548-3.28c2.65.358 4.81 2.302 5.444 4.9-.001.002 0 .004.001.005.002.001.003.002.005.002.12.502.181 1.017.182 1.534z" fill="#222f65"/><path d="m466 353.088c0 2.9-1.765 5.487-4.411 6.469-2.646.981-5.604.145-7.396-2.09l-.006-.007c-.123-.531-.186-1.076-.187-1.622 0-2.9 1.765-5.488 4.411-6.469s5.604-.145 7.396 2.09c0 .002 0 .003.002.005.001.001.003.002.004.002.123.531.186 1.076.187 1.622z" fill="#000" opacity=".1"/><path d="m462.5 362.963c3.59 0 6.5-2.91 6.5-6.5s-2.91-6.5-6.5-6.5-6.5 2.91-6.5 6.5 2.91 6.5 6.5 6.5z" fill="#222f65"/><path d="m466 403.463c0 2.741-1.72 5.188-4.3 6.116-2.579.928-5.463.137-7.209-1.976l-.007-.006c-1.701-2.064-1.964-4.958-.664-7.295s3.899-3.638 6.548-3.28c2.65.358 4.81 2.302 5.444 4.9-.001.002 0 .004.001.005.002.001.003.002.005.002.12.502.181 1.017.182 1.534z" fill="#222f65"/><path d="m466 404.088c0 2.9-1.765 5.487-4.411 6.469-2.646.981-5.604.145-7.396-2.09l-.006-.007c-.123-.531-.186-1.076-.187-1.622 0-2.9 1.765-5.488 4.411-6.469s5.604-.145 7.396 2.09c0 .002 0 .003.002.005.001.001.003.002.004.002.123.531.186 1.076.187 1.622z" fill="#000" opacity=".1"/><path d="m462.5 413.963c3.59 0 6.5-2.91 6.5-6.5s-2.91-6.5-6.5-6.5-6.5 2.91-6.5 6.5 2.91 6.5 6.5 6.5z" fill="#222f65"/><path d="m315 141.963h35v35h-35z" fill="#f0f0f0"/><path clip-rule="evenodd" d="m443 158.963c0 4.418 3.582 8 8 8 4.416-.005 7.995-3.584 8-8 0-4.418-3.582-8-8-8s-8 3.582-8 8zm1.333 0c0-3.682 2.985-6.667 6.667-6.667 3.68.004 6.662 2.987 6.667 6.667 0 3.682-2.985 6.667-6.667 6.667s-6.667-2.985-6.667-6.667z" fill="#3f3d56" fill-rule="evenodd"/><path clip-rule="evenodd" d="m257 279.963h17v-17h-17zm15.692-1.308h-14.384v-14.384h14.384z" fill="#3f3d56" fill-rule="evenodd"/><path clip-rule="evenodd" d="m523 410.963h17v-17h-17zm15.692-1.308h-14.384v-14.384h14.384z" fill="#3f3d56" fill-rule="evenodd"/><path d="m195 293.867 2.998 1.626 10.2 5.536 16.467 8.934 9.597-17.929c1.825-3.403 2.232-7.396 1.13-11.101-1.102-3.704-3.622-6.815-7.005-8.647-7.343-3.993-16.406-2.754-22.427 3.064l-.005.006c-1.444 1.396-2.663 3.011-3.612 4.786z" fill="#2f2e41"/><path d="m240 474.043-1.931 22.88-7.242 1.04-4.827-26z" fill="#ffb8b8"/><path d="m228.352 498.581s9.575-5.132 11.591-1.026c0 0-1.512 12.316 4.536 13.856 6.048 1.539 8.568 12.316 0 13.342-8.567 1.027-14.111-2.052-17.135-2.052s0-10.777 0-10.777z" fill="#2f2e41"/><path d="m179 474.043 1.931 22.88 7.242 1.04 4.827-26z" fill="#ffb8b8"/><path d="m191.648 498.581s-9.575-5.132-11.591-1.026c0 0 1.512 12.316-4.536 13.856-6.048 1.539-8.568 12.316 0 13.342 8.567 1.027 14.111-2.052 17.135-2.052s0-10.777 0-10.777z" fill="#2f2e41"/><path d="m219.5 297.963c7.456 0 13.5-6.044 13.5-13.5s-6.044-13.5-13.5-13.5-13.5 6.044-13.5 13.5 6.044 13.5 13.5 13.5z" fill="#ffb8b8"/><path d="m179 309.763 10.495 16.694 12.493-1.012 20.489 1.518s1.934-3.916 3.514-7.725c.864-1.902 1.529-3.891 1.983-5.934.5-3.541-6.496-7.082-6.496-7.082s-.275-.051-.735-.162c-.609-.147-1.549-.39-2.578-.744-2.324-.799-5.118-2.155-5.682-4.153-1-3.541 6.496-8.6 6.496-8.6l-8.995-8.6s-7.991 11.236-17.696 13.795c-.563.151-1.133.269-1.709.354-.03.005-.055.011-.085.016-10.495 1.517-11.494 11.635-11.494 11.635z" fill="#ffb8b8"/><path d="m184.264 305.963-5.787 4.538s-4.736 21.683-3.158 27.734c1.579 6.051-.526 11.598-.526 12.606 0 1.009-4.735 38.827-4.735 38.827s-9.471 20.17.526 18.153 6.314-22.187 6.314-22.187l12.102-35.297v-29.751z" fill="#ffb8b8"/><path d="m224.046 309.963 4.091 3 2.046 41.995 15.342 35.997s11.251 17.498 4.091 17.998-11.762-17.998-11.762-17.998l-13.808-34.497-2.046-33.496z" fill="#ffb8b8"/><path d="m198.734 311.963s10.087 7.078 26.226 4.55c0 0 4.539 9.1 2.018 14.155-2.522 5.056 3.026 17.189 4.034 18.705 1.009 1.517 12.609 32.861 16.644 66.732 4.034 33.872 15.13 57.127 5.547 60.16-9.582 3.033-29.252 6.572-31.269 3.539s-5.043-78.36-5.043-78.36l-5.548 28.817s7.565 49.037 2.017 50.049c-5.548 1.011-40.347-2.023-39.339-8.089 1.009-6.067 11.096-37.916 11.096-37.916s-.504-63.699 9.583-75.832c0 0 4.034-6.572-1.513-15.166-5.548-8.595-5.044-22.244-5.044-22.244s4.035 0 10.591-9.1z" fill="#2f2e41"/><path d="m190 298.315 8.08 18.648 1.92-1.007-8.358-17.993z" fill="#2f2e41"/><path d="m218 305.963 6.452 14 1.548-.136-.526-2.383-4.838-10.74c-.623-.147-1.584-.388-2.636-.741z" fill="#2f2e41"/><path d="m197.377 294.986c.989 3.266 3.79 5.605 7.107 5.937 3.318.331 6.505-1.41 8.09-4.419-6.366-8.54-.906-13.905 9.436-17.963 1.593-3.034 1.241-6.755-.891-9.418-5.773-.758-11.571 1.201-15.776 5.329l-.005.005-7.347 13.982c-1.058 2.008-1.279 4.369-.614 6.547z" fill="#2f2e41"/><path d="m212.5 288.963c.828 0 1.5-1.343 1.5-3s-.672-3-1.5-3-1.5 1.343-1.5 3 .672 3 1.5 3z" fill="#ffb8b8"/><path d="m218 281.084 15.212 6.879 2.788-6.141c-.48-2.245-1.486-4.344-2.935-6.127l-10.47-4.732z" fill="#2f2e41"/><path d="m254.5 415.963c3.59 0 6.5-2.91 6.5-6.5s-2.91-6.5-6.5-6.5-6.5 2.91-6.5 6.5 2.91 6.5 6.5 6.5z" fill="#222f65"/><path d="m38.5 455.963c2.4853 0 4.5-2.015 4.5-4.5s-2.0147-4.5-4.5-4.5-4.5 2.015-4.5 4.5 2.0147 4.5 4.5 4.5z" fill="#ff6584"/><path d="m59 474.963h1v50h-1z" fill="#3f3d56"/><path d="m60 480.963c3.866 0 7-3.134 7-7s-3.134-7-7-7-7 3.134-7 7 3.134 7 7 7z" fill="#3f3d56"/><path d="m59 504.963s-.9767-21.273-21-18.8z" fill="#3f3d56"/></svg>