<svg fill="none" height="388" viewBox="0 0 540 388" width="540" xmlns="http://www.w3.org/2000/svg"><path d="m540 232.723c0 67.654-40.294 91.277-90 91.277s-90-23.623-90-91.277c0-67.655 90-153.723 90-153.723s90 86.068 90 153.723z" fill="#f2f2f2"/><path d="m446.955 313.877.916-56.675 38.129-70.116-37.985 61.225.412-25.484 26.278-50.728-26.17 43.984v.001l.741-45.834 28.14-40.386-28.024 33.179.463-84.043-2.908 111.257.239-4.589-28.61-44.018 28.151 52.828-2.666 51.188-.079-1.358-32.982-46.323 32.882 51.122-.333 6.402-.06.096.027.526-6.763 129.869h9.036l1.084-67.08 32.802-50.997z" fill="#3f3d56"/><path d="m49 345.411c0 18.225-10.969 24.589-24.5 24.589s-24.5-6.364-24.5-24.589 24.5-41.411 24.5-41.411 24.5 23.186 24.5 41.411z" fill="#f2f2f2"/><path d="m23.5881 366.501.244-15.323 10.1679-18.956-10.1295 16.552.1098-6.889 7.0077-13.715-6.9785 11.892.1974-12.392 7.5042-10.919-7.4729 8.97.1234-22.721-.7756 30.079.0633-1.241-7.6292-11.9 7.5069 14.282-.7106 13.839-.0211-.367-8.7953-12.524 8.7682 13.822-.0887 1.73-.0157.026.0071.142-1.8038 35.112h2.4101l.2888-18.136 8.7476-13.787z" fill="#3f3d56"/><path d="m3 386.5h489" stroke="#3f3d56" stroke-width="2"/><path d="m493 370.235c0 12.426-7.387 16.765-16.5 16.765-.211 0-.422-.002-.632-.007-.423-.009-.841-.029-1.254-.057-8.224-.582-14.614-5.144-14.614-16.701 0-11.96 15.284-27.052 16.432-28.169l.002-.002c.044-.043.066-.064.066-.064s16.5 15.808 16.5 28.235z" fill="#111b47"/><g fill="#3f3d56"><path d="m475.712 385.106 6.107-8.434-6.123 9.36-.016.968c-.427-.009-.85-.029-1.269-.057l.659-12.435-.005-.096.011-.018.062-1.175-6.138-9.383 6.157 8.503.014.249.498-9.395-5.255-9.696 5.319 8.047.518-19.478.002-.066v.064l-.087 15.36 5.232-6.089-5.253 7.412-.138 8.411 4.884-8.072-4.905 9.31-.077 4.676 7.091-11.235-7.117 12.867z"/><rect height="47" rx="2.29166" width="6" x="313" y="88"/><rect height="15" rx="1.5" width="3" x="124" y="51"/><rect height="27" rx="1.6946" width="4" x="124" y="79"/><rect height="27" rx="1.5" width="3" x="124" y="116"/><rect height="386" rx="35.694" width="190" x="126"/></g><rect fill="#e6e8ec" height="5" rx="2.5" width="27" x="202" y="12"/><path d="m236 17c1.657 0 3-1.3431 3-3s-1.343-3-3-3-3 1.3431-3 3 1.343 3 3 3z" fill="#e6e8ec"/><path d="m305 25.0897v335.8263c-.002 8.332-6.777 15.085-15.133 15.084h-136.734c-8.356.001-15.131-6.752-15.133-15.084v-335.8263c0-4.0022 1.594-7.8405 4.432-10.6704 2.838-2.83 6.687-4.41964 10.701-4.4193h20.461v2.6205c.002 6.8614 5.58 12.4232 12.461 12.4251h69.537c6.882 0 12.461-5.5629 12.461-12.4251v-2.6205h21.814c4.014-.00034 7.863 1.5893 10.701 4.4193 2.838 2.8299 4.432 6.6682 4.432 10.6704z" fill="#fff"/><path d="m138 88h167v192h-167z" fill="#f2f2f2"/><path d="m150 306-.87-.779c-3.09-2.818-5.129-4.646-5.129-6.924-.016-.875.326-1.72.948-2.341.621-.621 1.47-.966 2.351-.956 1.043.006 2.03.466 2.7 1.259.67-.793 1.657-1.253 2.7-1.259.881-.01 1.73.335 2.351.956.622.621.964 1.466.948 2.341 0 2.278-2.039 4.106-5.129 6.924z" fill="#ff6584"/><path d="m181 303.537 1.734.463c.629-1.702 2.116-3.005 3.975-3.484s3.852-.073 5.327 1.087l-2.649 2.397h6.613v-6l-2.665 2.384c-1.935-1.584-4.594-2.155-7.077-1.521-2.482.635-4.458 2.391-5.258 4.675z" fill="#f2f2f2"/><path d="m148.5 74c4.142 0 7.5-3.3579 7.5-7.5s-3.358-7.5-7.5-7.5-7.5 3.3579-7.5 7.5 3.358 7.5 7.5 7.5z" fill="#111b47"/><path d="m162 62h72v9h-72z" fill="#111b47"/><path d="m143 319h72v9h-72z" fill="#f2f2f2"/><path d="m144 338h151v9h-151z" fill="#f2f2f2"/><path d="m174 306-1.844-3.287c.912-2.23.073-4.803-1.967-6.035s-4.659-.746-6.143 1.138c-1.483 1.885-1.378 4.594.246 6.354s4.272 2.034 6.211.643z" fill="#f2f2f2"/><path d="m206.555 132.45c-5.705 1.18-10.713 4.601-13.921 9.51-3.209 4.91-4.356 10.906-3.188 16.669l4.531 22.371 5.074-1.049.358-2.371 1.063 2.077 30.846-6.377.358-2.37 1.063 2.077 4.261-.881-4.532-22.371c-1.167-5.764-4.553-10.823-9.413-14.064-4.859-3.242-10.795-4.4-16.5-3.221z" fill="#2f2e41"/><path d="m245.647 201 26.353 16.186-3.294 7.814-24.706-11.721z" fill="#9f616a"/><path d="m211.906 219.639s-53.514 0-62.341 13.761-1.655 33.026 25.93 37.429c27.584 4.404 111.442 6.606 118.062-9.907 6.621-16.514 1.656-25.871 1.656-25.871s-28.689-19.816-83.307-15.412z" fill="#111b47"/><path d="m258.606 232.985 29.394 11.015s12.202-8.812 6.101-18.725-33.832-67.19-33.832-67.19-7.764-11.014 2.219-17.072 13.865 3.855 13.865 3.855-.554 2.203 3.328.551c3.882-1.653 11.093 3.855 7.21 12.666-3.882 8.812-6.655 11.015 1.664 10.464 3.004-.198 5.647-2.336 7.797-4.987 4.122-5.08 2.282-9.172 1.97-15.689-.534-11.163-1.408-18.442-4.221-22.832-3.882-6.058-9.428-11.014-23.848-8.261-14.42 2.754-35.496 16.522-30.504 36.349 4.991 19.826 16.084 41.856 16.084 41.856s7.764 30.841 2.773 38z" fill="#111b47"/><path d="m259 232.777c-4.762 1.313-10.743 1.954-17.18 2.152-11.233.348-23.877-.645-33.975-1.772-10.908-1.22-18.845-2.589-18.845-2.589 3.687-3.444 9.354-4.808 16.012-5.305 8.268-.618 18.068.089 27.531-.215 3.489-.122 6.981.141 10.412.784 10.44 1.993 16.045 6.945 16.045 6.945z" fill="#000" opacity=".1"/><path d="m211.5 173c8.56 0 15.5-6.94 15.5-15.5s-6.94-15.5-15.5-15.5-15.5 6.94-15.5 15.5 6.94 15.5 15.5 15.5z" fill="#9f616a"/><path d="m209.253 170.111s2.722 10.556 0 11.111c-2.721.556-9.253 3.334-9.253 3.334l8.165 3.333 15.24 14.444 13.063 6.667 6.532-2.222v-12.222l-9.797-15.556s-6.532 2.222-8.165-5-4.899-10-4.899-10z" fill="#9f616a"/><path d="m205.355 185h-6.616s-11.58 3.837-18.196 12.606c-6.617 8.77-17.093 17.539-17.093 17.539s-7.168 9.866-3.309 23.569c3.86 13.702 9.374 23.568 14.336 20.827 4.963-2.74-7.168-22.472-7.168-22.472l3.309-12.058s17.093-19.731 24.261-19.183 7.719 6.577 7.719 6.577l15.439 4.385 4.963-10.414-2.757-10.962z" fill="#9f616a"/><path d="m244.775 220.238c-1.036 1.772-1.796 3.691-2.253 5.691-.684 2.954-1.063 5.97-1.129 9.001-11.173.344-23.748-.639-33.792-1.753-.888-2.36-1.864-5.074-2.817-7.811-2.572-7.395-4.962-14.943-4.962-16.052 0-2.185 11.513 1.638 14.254 1.092s3.837-9.285 0-13.655c-3.838-4.369-15.076-11.743-15.076-11.743l3.837-1.092s8.498 6.281 26.04 16.659c17.543 10.377 10.416-6.008 10.416-6.008l-10.142-15.567h4.386s8.497 14.474 12.883 21.028c4.386 6.555 2.741 13.109-1.645 20.21z" fill="#3f3d56"/><path d="m194.366 142.901 27.916-5.713 3.506 17.131-27.916 5.712z" fill="#2f2e41"/><path d="m282.5 140c4.694 0 8.5-3.806 8.5-8.5s-3.806-8.5-8.5-8.5-8.5 3.806-8.5 8.5 3.806 8.5 8.5 8.5z" fill="#3f3d56"/><path d="m282.5 136c2.485 0 4.5-2.015 4.5-4.5s-2.015-4.5-4.5-4.5-4.5 2.015-4.5 4.5 2.015 4.5 4.5 4.5z" fill="#fff"/><path d="m39.4672 226-.5737 4.328c-.1941 1.465-.3884 2.931-.493 4.405-.3478 4.902.3006 9.825.1299 14.736-.1313 3.782-.7479 7.56-.4501 11.333.2635 3.336 1.2354 6.576 2.2018 9.786l1.3813 4.589c.0229.278.1772.53.4171.681.24.151.5383.184.8067.089l6.1128-.542c-.3915-1.754-.8269-3.582-1.0373-5.365-.1663-1.41-.2663-2.827-.3707-4.243-.3253-4.414-.6936-8.825-1.0618-13.235l-.647-7.748c-.2806-3.361-.5646-6.742-1.4305-10.006-.863-3.305-2.5796-6.337-4.9855-8.808z" fill="#111b47"/><path d="m39.4672 226-.5737 4.328c-.1941 1.465-.3884 2.931-.493 4.405-.3478 4.902.3006 9.825.1299 14.736-.1313 3.782-.7479 7.56-.4501 11.333.2635 3.336 1.2354 6.576 2.2018 9.786l1.3813 4.589c.0229.278.1772.53.4171.681.24.151.5383.184.8067.089l6.1128-.542c-.3915-1.754-.8269-3.582-1.0373-5.365-.1663-1.41-.2663-2.827-.3707-4.243-.3253-4.414-.6936-8.825-1.0618-13.235l-.647-7.748c-.2806-3.361-.5646-6.742-1.4305-10.006-.863-3.305-2.5796-6.337-4.9855-8.808z" fill="#000" opacity=".1"/><path d="m50.8466 375.44c-.3563.698-.6664 1.419-.9283 2.158-.6948 2.041-.7998 4.228-.8986 6.381-.0475.416-.0089.836.1132 1.236.297.774 1.1531 1.167 1.9533 1.382 3.3516.902 6.8854.053 10.3422-.256 3.3929-.304 6.8492-.084 10.1724-.833.4912-.093.9659-.258 1.4087-.49.8425-.547 1.4709-1.369 1.78-2.325.1011-.245.1691-.502.2021-.764.1098-1.133-.8773-2.118-1.9524-2.49s-2.2441-.311-3.3759-.427c-4.7865-.492-8.6478-4.136-9.4183-8.887-.0401-.248-5.5963-.102-6.1811.219-.6845.376-1.0988 1.314-1.4844 1.947-.6231 1.024-1.2007 2.073-1.7329 3.149z" fill="#3f3d56"/><path d="m50.8466 375.44c-.3563.698-.6664 1.419-.9283 2.158-.6948 2.041-.7998 4.228-.8986 6.381-.0475.416-.0089.836.1132 1.236.297.774 1.1531 1.167 1.9533 1.382 3.3516.902 6.8854.053 10.3422-.256 3.3929-.304 6.8492-.084 10.1724-.833.4912-.093.9659-.258 1.4087-.49.8425-.547 1.4709-1.369 1.78-2.325.1011-.245.1691-.502.2021-.764.1098-1.133-.8773-2.118-1.9524-2.49s-2.2441-.311-3.3759-.427c-4.7865-.492-8.6478-4.136-9.4183-8.887-.0401-.248-5.5963-.102-6.1811.219-.6845.376-1.0988 1.314-1.4844 1.947-.6231 1.024-1.2007 2.073-1.7329 3.149z" fill="#000" opacity=".1"/><path d="m59.8466 375.44c-.3563.698-.6664 1.419-.9283 2.158-.6948 2.041-.7998 4.228-.8986 6.381-.0475.416-.0089.836.1132 1.236.297.774 1.1531 1.167 1.9533 1.382 3.3516.902 6.8854.053 10.3422-.256 3.3929-.304 6.8492-.084 10.1724-.833.4912-.093.9659-.258 1.4087-.49.8425-.547 1.4709-1.369 1.78-2.325.1011-.245.1691-.502.2021-.764.1098-1.133-.8773-2.118-1.9524-2.49s-2.2441-.311-3.3759-.427c-4.7865-.492-8.6478-4.136-9.4183-8.887-.0401-.248-5.5963-.102-6.1811.219-.6845.376-1.0988 1.314-1.4844 1.947-.6231 1.024-1.2007 2.073-1.7329 3.149z" fill="#3f3d56"/><path d="m82.9989 320.955c.0702 11.046-3.1113 21.843-6.8429 32.227-1.4774 4.111-3.0451 8.185-4.7031 12.224-.9816 2.394-2.0876 5.049-1.0357 7.413-3.027-1.164-6.1263-1.851-9.3219-1.314 1.2164-2.503 1.102-5.418 1.1562-8.205.1056-3.784.509-7.554 1.2064-11.273 1.0704-5.66 2.9069-11.144 5.4578-16.298.5171-1.087.8736-2.245 1.0578-3.436.3312-2.649.1788-5.337-.4496-7.931-1.166-5.746-3.3795-11.223-6.5277-16.153-.01.11-.0201.221-.0321.331-.1904 1.643-.4644 3.274-.821 4.889-.7146 3.421-1.5476 6.844-1.4232 10.284.134 3.648-.0899 7.301-.6684 10.905-.1837 1.416-.5487 2.801-1.0859 4.122-.3493.791-.8049 1.535-1.08 2.354-.2728.946-.4153 1.926-.4235 2.912-.4075 8.319-.006 18.963 1.6781 27.117-2.838-.132-5.6582.517-8.1596 1.877-2.0354-5.799-3.3321-14.035-4.3017-20.142-1.0979-7.215-.8747-14.571.6584-21.704.4769-2.38.6556-4.811.532-7.236-.2168-4.83-1.3931-9.555-2.5613-14.243-.5942-2.38-1.1883-4.76-1.7825-7.141-.8451-3.391-1.6915-6.782-2.5392-10.175-.5621-2.256-1.1301-4.56-.9535-6.881.1241-1.272.3887-2.527.7889-3.74 1.2645-4.127 3.155-8.032 5.6043-11.575 9.7534.553 19.6253-.369 29.3646-1.125.4736-.095.9651-.01 1.3811.237.3306.34.5275.791.554 1.267 1.2204 6.978 2.4402 13.957 3.6593 20.936.5937 2.914.9422 5.873 1.0418 8.847.018 2.963-.4577 5.916-.3473 8.878.1485 3.989.8953 7.761.9194 11.752z" fill="#2f2e41"/><path d="m63 309.181c-.194 1.619-.4732 3.228-.8366 4.819-2.1619-3.652-4.4915-7.213-6.4816-10.957-.5134-.965-1.0022-1.942-1.4931-2.918-.4888-.975-.9777-1.95-1.4665-2.925-.2741-.547-.5502-1.097-.7977-1.658-.4043-.809-.7144-1.659-.9245-2.536.724-.13 2.5076 1.777 3.0434 2.274 1.0993 1.059 2.1372 2.177 3.1089 3.349 1.1758 1.3 2.2551 2.68 3.2296 4.13 1.2455 1.977 2.1313 4.15 2.6181 6.422z" fill="#000" opacity=".1"/><path d="m72 207.615s-5.5514 8.962-4.5234 10.837c1.0281 1.876-17.4766-1.667-17.4766-1.667s10.0748-8.961 9.0467-12.713c-1.028-3.751 12.9533 3.543 12.9533 3.543z" fill="#efb7b9"/><path d="m66.5 210c6.9036 0 12.5-5.596 12.5-12.5s-5.5964-12.5-12.5-12.5-12.5 5.596-12.5 12.5 5.5964 12.5 12.5 12.5z" fill="#efb7b9"/><path d="m71.8634 216.214c-1.3347-1.846-3.1466-3.298-5.2439-4.204-1.2074-.429-2.4556-.735-3.7254-.913l-4.9749-.869c-1.2192-.213-2.5242-.417-3.6553.083-.5781.29-1.1045.672-1.558 1.131-1.7292 1.591-3.4049 3.341-5.5728 4.259-.5935.252-1.2142.436-1.8068.689-2.4256 1.038-4.2392 3.205-5.2696 5.621-1.081 2.534-1.1123 5.281-1.027 8.033-.0027.949.0913 1.896.2805 2.827.251.886.5663 1.752.9436 2.593.687 1.794 1.2624 3.629 1.7229 5.494 1.2888 4.902 2.3603 9.853 3.2144 14.855.0745.719.2873 1.417.6269 2.056.48.636 1.0609 1.19 1.7199 1.641.5218.43 1.0041.905 1.4413 1.419.2132.22.3696.488.4554.781.1614.739-.4963 1.373-1.0301 1.912-1.1089 1.124-1.9105 2.511-2.3287 4.029-.2605.311-.3927.709-.3699 1.113.1068.28.1465.581.1162.879-.1024.272-.2623.519-.4689.724-.4811.623-.6696 1.42-.5174 2.19 3.8651 1.669 8.0015 2.631 12.2104 2.84 1.0307.048 2.0654.049 3.0894.174.7304.089 1.4519.242 2.1828.327 1.0633.099 2.1321.126 3.1991.081 5.55-.109 11.2629-.252 16.3594-2.438.4801-2.597-.5542-5.244-1.203-7.804-1.0318-4.073-1.2918-8.296-2.0595-12.426-.5254-2.826-1.2886-5.608-1.7262-8.449s-.5402-5.786.2459-8.552c.6967-2.452.9069-4.947 1.629-7.391s1.2281-5.093.4129-7.508c-1.0107-2.994-4.1384-5.363-7.3126-5.197z" fill="#111b47"/><path d="m77.8375 191.496c.6091-2.184-.5888-4.457-2.0219-6.232-1.5399-1.906-3.5296-3.626-5.9591-4.105-1.9744-.389-4.0203.081-6.0278-.076-1.7794-.138-3.4844-.765-5.2546-.99-1.6013-.168-3.2191-.108-4.8028.179-1.5054.216-2.9767.619-4.3781 1.201-5.3323 2.32-8.4567 8.05-9.1817 13.733-.725 5.682.5463 11.407 1.81 16.998l1.1423 5.054c1.1889 5.261 2.3819 10.548 2.7 15.928.3181 5.379-.2754 10.901-2.5289 15.814 7.286-3.843 12.9313-10.119 15.915-17.693.8103-2.081 1.4102-4.239 2.3077-6.284.7723-1.76 1.7609-3.427 2.4453-5.222.772-2.027 1.1426-4.18 1.0921-6.344-.039-1.626-.3161-3.245-.2678-4.87.0483-1.626.4695-3.323 1.6141-4.499 1.0175-1.045 2.4632-1.547 3.7743-2.205 2.0619-1.04 3.8632-2.516 5.274-4.322.8255-1.056.8695-1.507 1.0795-2.725.2042-1.185.9477-2.19 1.2684-3.34z" fill="#2f2e41"/><path d="m77.8934 283.916c.1271 1.291-.1073 2.615.175 3.882.2121.952.705 1.817.9948 2.748.2878 1.079.4358 2.191.4405 3.308.0419.937-.03 2.075-.8579 2.514-.3636.193-.7997.197-1.1782.359-.3784.161-.7031.62-.4864.971.1822.294.5958.297.9348.367s.712.421.5153.706c-.0791.093-.1843.16-.302.192-.3466.105-.6748.263-.9725.469-.301.214-.4558.58-.4003.946.0413.174.1607.321.3238.396s.3517.071.5114-.011c-.1519.324-.2349.677-.2437 1.035 1.3247.57 2.8158-.175 4.0625-.9.5407-.3 1.0626-.632 1.563-.996 2.0383-1.575 3.1661-4.057 3.0126-6.629-.0577-.638-.1555-1.271-.2925-1.896-.1933-1.088-.4485-2.164-.7642-3.222-.3564-1.117-.8463-2.185-1.2664-3.279-.8952-2.331-1.4715-4.772-2.2776-7.136-.0233-.228-.1407-.436-.3239-.574s-.4156-.194-.6413-.153c-.9084-.047-1.8188.037-2.7032.249-.5345.156-1.4112.5-1.6508 1.06-.2159.505.1459.957.3755 1.389.7516 1.294 1.2447 2.722 1.4517 4.205z" fill="#efb7b9"/><path d="m77.3143 222c.2581.269.4743.577.6409.914 1.719 3.201 1.7408 7.033 1.8216 10.686.091 4.113.3106 8.221.5302 12.328l.6568 12.283c.0627 1.173.1256 2.348.2862 3.512.7726.2.8046 1.223.715 2.034-.553 5.012-1.9291 10.172-.488 14.996.0551.248.1711.478.337.668-.7264-.235-1.5041-.245-2.2364-.031-.7184.155-1.4091.425-2.1249.592-.9109.212-1.9435.303-2.5649 1.018-.7022-2.168-1.2614-4.381-1.6738-6.625-.3411-2.04-.434-4.161-1.245-6.056-.3275-.765-.765-1.475-1.1642-2.203-2.1004-3.834-3.1288-8.17-4.1339-12.444-.4512-2.027-.5594-4.118-.3198-6.182.1428-.942.2266-1.892.251-2.845-.064-1.005-.1926-2.005-.3848-2.993-.4243-2.898-.2256-5.855.5823-8.666.7527-2.61 1.4126-5.356 2.9866-7.549 1.5741-2.192 4.8722-3.4 7.5281-3.437z" fill="#000" opacity=".1"/><path d="m77.3143 221c.2581.269.4743.577.6409.914 1.719 3.201 1.7408 7.033 1.8216 10.686.091 4.113.3106 8.221.5302 12.328l.6568 12.283c.0627 1.173.1256 2.348.2862 3.512.7726.2.8046 1.223.715 2.034-.553 5.012-1.9291 10.172-.488 14.996.0551.248.1711.478.337.668-.7264-.235-1.5041-.245-2.2364-.031-.7184.155-1.4091.425-2.1249.592-.9109.212-1.9435.303-2.5649 1.018-.7022-2.168-1.2614-4.381-1.6737-6.625-.3412-2.04-.4341-4.161-1.2451-6.056-.3275-.765-.765-1.475-1.1642-2.203-2.1004-3.834-3.1288-8.17-4.1339-12.444-.4512-2.027-.5594-4.118-.3198-6.182.1428-.942.2266-1.892.251-2.845-.064-1.005-.1926-2.005-.3848-2.993-.4243-2.898-.2256-5.855.5823-8.666.7527-2.61 1.4126-5.356 2.9866-7.549 1.5741-2.192 4.8722-3.4 7.5281-3.437z" fill="#111b47"/><g fill="#000" opacity=".1"><path d="m75.697 184.58c-1.5351-1.92-3.5185-3.653-5.9404-4.135-1.9682-.392-4.0077.081-6.0088-.076-1.7739-.14-3.4735-.771-5.2382-.997-1.5962-.17-3.209-.109-4.7877.18-1.5007.217-2.9674.624-4.3644 1.209-.7549.334-1.4753.739-2.1512 1.211 1.2454-.468 2.5375-.802 3.8544-.998 1.5787-.29 3.1914-.35 4.7877-.18 1.7646.226 3.4643.857 5.2381.997 2.0012.157 4.0406-.316 6.0088.076 2.422.482 4.4054 2.215 5.9405 4.135 1.4286 1.787 2.6228 4.077 2.0156 6.277-.3198 1.158-1.0609 2.169-1.2645 3.363-.2093 1.227-.2531 1.682-1.076 2.745-1.0593 1.368-2.3405 2.552-3.7913 3.503.4004-.189.8037-.373 1.1951-.572 2.0554-1.047 3.851-2.534 5.2574-4.352.8229-1.064.8667-1.518 1.0761-2.746.2036-1.193.9446-2.205 1.2644-3.363.6073-2.2-.5869-4.49-2.0156-6.277z"/><path d="m66.3521 203.539c.2146-.22.4482-.421.6982-.601-1.1932.573-2.4484 1.078-3.3594 2.023-1.141 1.184-1.5609 2.893-1.609 4.531-.0482 1.638.2281 3.268.2669 4.906.0504 2.179-.3191 4.348-1.0886 6.39-.6823 1.807-1.6678 3.486-2.4376 5.258-.8948 2.06-1.4927 4.234-2.3005 6.329-2.5802 6.613-7.1621 12.27-13.1155 16.194-.0303.068-.0575.138-.0885.206 7.2633-3.871 12.8908-10.192 15.8652-17.821.8078-2.095 1.4058-4.269 2.3005-6.329.7698-1.773 1.7553-3.452 2.4376-5.259.7695-2.042 1.139-4.211 1.0886-6.39-.0388-1.638-.315-3.268-.2669-4.906.0481-1.637.468-3.346 1.609-4.531z"/></g><path d="m338.525 384.822c-.6.682-1.628.819-2.558.909-1.202.164-2.421.186-3.628.065-1.434-.201-2.294.567-3.604-.024-.793-.357-2.013.357-2.806 0-1.086-.489-4.838-.59-5.5-1.546-.661-.955-.594-2.464.452-3.027.297-.133.603-.246.916-.338 1.751-.656 5.299-5.603 7.162-5.856.924-.04 1.842.163 2.65.588 1.837.767 5.08 1.373 5.882 3.321.624 1.517 2.333 4.425 1.034 5.908z" fill="#2f2e41"/><path d="m351.47 385.4c.593.722 1.609.867 2.529.962 1.187.174 2.392.197 3.585.069 1.418-.212 3.146 1.015 4.441.39.784-.378 1.99-.181 2.773-.559 1.074-.519 6.124.637 6.778-.374.653-1.012.587-2.61-.447-3.206-.293-.141-.596-.26-.906-.358-1.731-.694-7.455-7.05-9.297-7.319-.914-.042-1.821.173-2.62.623-1.815.812-5.022 1.454-5.814 3.516-.617 1.607-2.306 4.685-1.022 6.256z" fill="#2f2e41"/><path d="m357.088 272.843c.565 1.077 1.059 2.19 1.478 3.331 5.015 13.161 5.435 27.544 5.643 41.612-.018 2.288.114 4.574.394 6.844.21 1.44.542 2.896.328 4.335-.185 1.244-.776 2.472-.54 3.708.105.554.373 1.068.479 1.623.081.608.064 1.225-.05 1.827l-.673 4.963c-.383 2.827-1.267 5.55-1.219 8.402.033 1.945.066 3.894.285 5.828.221 1.963.634 3.912.655 5.887.016 1.48-.188 2.951-.32 4.425-.186 2.081-.228 4.172-.126 6.259.078 1.608.264 3.278 1.124 4.643-.963 1.37-1.917 2.598-3.459 3.269-3.134 1.363-6.729.9-10.115.413.187-.62.478-1.323.207-1.912-.159-.285-.355-.548-.581-.785-.739-1.042-1.253-2.226-1.507-3.475-.41-1.482-.82-3.077.021-4.499.29-.506.418-1.088.367-1.668-.701-9.33-2.793-18.983-.866-28.139.206-.978.451-1.949.566-2.941.103-1.427.12-2.859.051-4.287l-.04-1.989c-.101-2.123-.014-4.298-.443-6.397-.307-1.503-.881-3.014-.174-4.546.313-.712.274-1.528-.105-2.208-1.487-2.585-2.683-5.324-3.567-8.168-.184-.795-.435-1.573-.751-2.326-.432-.793-.928-1.55-1.483-2.263-1.678-2.414-2.682-5.215-3.667-7.979.105-.254.025-.606-.249-.57-.271.069-.504.241-.647.479-1.349 1.799-1.462 4.2-1.523 6.442-.103 2.083-.067 4.17.107 6.249.116 1.088.307 2.169.406 3.259.129 2.035.096 4.077-.098 6.106l-.689 9.987c-.093.826-.043 1.662.148 2.47.443 1.4.658 2.861.639 4.327-.181 6.033.344 12.067 1.567 17.979.336 1.633.725 3.255 1.011 4.897.673 3.869.765 7.812.856 11.737.055 2.414.095 4.914-.864 7.134-.374.684-.649 1.417-.816 2.178-.004.392-.056.782-.157 1.162-.281.718-1.125 1.024-1.885 1.188-1.426.308-2.889.411-4.345.307-.342-.006-.679-.08-.991-.219-.543-.279-.831-.87-1.244-1.317-.891-.966-2.372-1.261-3.183-2.293-1.015-1.29-.589-3.159.015-4.681.604-1.523 1.352-3.176.832-4.729-.613-1.83-2.785-2.815-3.368-4.655 1.664-7.419-2.423-15.092-2.073-22.685.082-1.768.391-3.524.397-5.294.016-4.56-1.975-8.998-1.648-13.546.833-11.56-3.136-23.099-4.818-34.567-.318-1.712-.437-3.455-.354-5.193.249-2.871 1.593-5.542 3.208-7.937 1.158-1.715 2.55-3.394 4.468-4.197 1.579-.661 3.348-.658 5.062-.645 4.276.033 8.552.066 12.827.142 2.91-.04 5.816.217 8.672.77 2.313.525 4.476 1.594 6.825 1.928z" fill="#2f2e41"/><path d="m288.641 220.125c-.429-2.071.382-4.286-.252-6.304-.229-.728-.791-1.485-1.564-1.464-.75.021-1.258.745-1.924 1.089-1.073.553-2.376.05-3.448-.504s-2.267-1.182-3.43-.849c-.137.718.355 1.402.89 1.908.593.441 1.083 1.002 1.439 1.645.175.695.241 1.412.197 2.126.122 1.64 1.175 3.052 2.228 4.328 1.696 2.056 3.497 4.025 5.396 5.9-.003-.003 2.882-3.522 2.826-4.137-.052-.58-1.023-1.122-1.375-1.589-.483-.638-.818-1.371-.983-2.149z" fill="#a1616a"/><path d="m370.591 262.375c.242.649.424 1.321.542 2.005.701 3.508 1.143 7.064 1.579 10.617.116.948.232 1.897.268 2.852.123 2.268-.329 4.53-1.311 6.562-1 2.037-2.698 3.617-4.766 4.432-.636.233-1.526.276-1.804-.36-.099-.294-.097-.614.006-.907.251-.946.763-1.795 1.095-2.714.492-1.374.574-2.868.235-4.29-.13-.544-.406-1.15-.939-1.259.266 1.254.042 2.566-.623 3.65-.151.303-.412.531-.726.636-.453.047-.878-.236-1.023-.682-.13-.437-.158-.9-.083-1.351.171-2.279.507-4.541 1.006-6.768.594-2.445 1.535-4.857 1.474-7.376-.054-2.283-.936-4.525-.689-6.794.004-.141.047-.277.126-.391.077-.08.172-.14.276-.175.617-.264 1.253-.481 1.901-.65.383-.1 1.69-.568 2.057-.359.297.17.389 1.187.537 1.531.263.61.613 1.175.862 1.791z" fill="#a1616a"/><path d="m326 195c4.971 0 9-4.029 9-9s-4.029-9-9-9-9 4.029-9 9 4.029 9 9 9z" fill="#a1616a"/><path d="m334.684 192.61c-.001.592.046 1.184.14 1.768.128.592.308 1.17.54 1.729.309.908.745 1.768 1.295 2.553.559.791 1.396 1.338 2.341 1.533-6.322 2.977-13.072 4.937-20 5.807 1.092-.73 2-1.704 2.653-2.846.347-.733.583-1.514.703-2.317.59-3.359.29-6.816-.869-10.023-.115-.316-.228-.704-.01-.96.092-.094.205-.168.328-.214 2.747-1.169 5.714-1.725 8.696-1.63.762.006 1.524.04 2.284.095.408.029 1.311-.057 1.636.244.388.359.194 1.473.206 1.96z" fill="#a1616a"/><path d="m338.95 199.782c-2.802-3.561-7.691-4.769-11.85-2.928-4.406 2.086-6.576 7.096-10.451 10.041-.881.654-1.821 1.228-2.806 1.715-.582.319-1.202.562-1.846.724-.725.159-1.481.137-2.202.309-1.374.4-2.545 1.301-3.277 2.522-.362.638-.765 1.254-1.204 1.843-.405.477-.908.862-1.336 1.318-1.541 1.643-1.959 4.001-2.311 6.217-1.205 1.259-2.521 2.41-3.931 3.439-.444.338-.936.608-1.461.801-1.355.436-2.85-.119-4.006-.946-1.155-.828-2.096-1.919-3.236-2.769-1.046 1.484-2.14 2.973-3.256 4.407-.168.273-.425.481-.728.592-.209.699.293 1.423.669 2.049l2.019 3.365c.667 1.224 1.485 2.362 2.436 3.385.965 1.03 2.282 1.665 3.694 1.782.891-.008 1.774-.175 2.605-.494 3.847-1.283 7.378-3.331 11.037-5.071.663-.376 1.405-.592 2.168-.631.783-.021 1.484.48 1.713 1.223.419 2.101.836 4.195 1.413 6.26.544 1.947 1.05 3.904 1.516 5.871.312 1.204.535 2.429.667 3.665.06.701.067 1.406.073 2.111l.078 8.511c.008.916-.518 1.488-.924 2.311-.621 1.278-.715 2.746-.261 4.091.228.664.584 1.277.836 1.932.61 1.584.587 3.328.555 5.023l-.073 3.884c-.018.161.011.323.085.468.239.37.815.153 1.179-.097l1.831-1.259c2.45.335 4.925.454 7.396.355 7.028-.101 14.057.176 21.068.663 2.34.162 4.758.338 6.969-.436 1.122-.393 2.156-1.02 3.303-1.335.473-.073.922-.257 1.31-.535.642-.589.472-1.623.21-2.45-.229-.724-.489-1.437-.78-2.139-.3-.646-.544-1.316-.73-2.002-.351-1.55-.01-3.34-.982-4.601-2.177-2.824-.636-7.169-1.55-10.606-.295-1.112-.732-2.184-1.009-3.301-.174-.701-.284-1.416-.394-2.129-.286-1.544-.428-3.111-.424-4.681.026-.785.126-1.566.226-2.346l.691-5.415c.865 1.602 1.466 3.329 1.78 5.119.629 2.672 1.404 5.309 2.321 7.898.522 1.562 1.043 3.123 1.606 4.671.357.88.632 1.791.821 2.722.124.75.128 1.515.215 2.27.19 1.62.761 3.173 1.669 4.533.167.316.445.56.781.688.226.041.459.032.682-.028 2.444-.478 4.809-1.29 7.028-2.411.473-.194.884-.512 1.187-.92.598-.963-.07-2.167-.361-3.26-.311-1.173-.238-2.583-1.169-3.369-3.242-2.736-1.633-8.291-3.255-12.194-.285-.685-.617-1.351-.862-2.051-.188-.535-.324-1.086-.461-1.636-1.133-4.546-2.345-9.072-3.637-13.577-1.339-4.671-1.196-9.536-2.882-14.095-.317-.955-.731-1.877-1.235-2.749-.571-.912-1.334-1.691-2.236-2.284-2.447-1.604-4.917-2.971-7.791-3.553-2.875-.582-5.987-.492-8.92-.48z" fill="#d0cde1"/><path d="m317.599 188.129c-1.25-.669-.92-2.486-1.133-3.881-.437-2.871-3.7-4.574-4.466-7.375.88.107 1.773-.018 2.589-.365.157-.93-.028-1.885-.522-2.69 2.684-1.084 4.856-3.211 7.581-4.188 3.427-1.228 7.243-.474 10.7.668 1.725.57 3.52 1.309 4.563 2.789 1.145 1.626 1.128 3.765 1.066 5.748-.096 3.111-.22 6.334-1.613 9.121-1.774 3.549-6.797 6.836-10.947 5.875-1.726-.4-2.234-1.477-2.961-2.968-.453-.928-.623-2.006-1.642-2.488-.997-.472-2.204.295-3.215-.246z" fill="#2f2e41"/><g fill="#000" opacity=".1"><path d="m355.612 254.288c.012.245.019.492.021.741-.012-.245-.018-.492-.021-.741z"/><path d="m315.526 263.57c.61 1.594.587 3.349.555 5.055-.008.445-.017.891-.025 1.336-.039-.92-.217-1.829-.53-2.695-.252-.659-.608-1.277-.836-1.945-.39-1.168-.376-2.433.041-3.591.228.628.557 1.216.795 1.84z"/></g><path d="m314.483 174.968-.009.004c-.076-.577-.232-1.13-.461-1.631.142-.077.282-.159.421-.244.11.613.126 1.249.049 1.871z" fill="#000" opacity=".1"/><path d="m24 157-2.1751-1.984c-7.7242-7.171-12.82364-11.825-12.82364-17.623-.03866-2.229.8164-4.379 2.37044-5.959 1.554-1.581 3.6746-2.459 5.8788-2.433 2.6061.014 5.0742 1.185 6.7495 3.204 1.6752-2.019 4.1434-3.19 6.7494-3.204 2.2043-.026 4.3249.852 5.8789 2.433 1.554 1.58 2.4091 3.73 2.3704 5.959 0 5.798-5.0995 10.452-12.8236 17.623z" fill="#ff6584"/><path clip-rule="evenodd" d="m28 152-2.1751-1.984c-7.7242-7.171-12.8236-11.825-12.8236-17.623-.0387-2.229.8164-4.379 2.3704-5.959 1.554-1.581 3.6746-2.459 5.8788-2.433 2.6061.014 5.0742 1.185 6.7495 3.204 1.6752-2.019 4.1434-3.19 6.7494-3.204 2.2043-.026 4.3249.852 5.8789 2.433 1.554 1.58 2.4091 3.73 2.3704 5.959 0 5.798-5.0995 10.452-12.8236 17.623z" fill-rule="evenodd" stroke="#3f3d56" stroke-width="2"/></svg>