<svg fill="none" height="313" viewBox="0 0 445 313" width="445" xmlns="http://www.w3.org/2000/svg"><path d="m167 304.935c79.529 0 144-64.471 144-144 0-79.5292-64.471-144.0002-144-144.0002s-144 64.471-144 144.0002c0 79.529 64.471 144 144 144z" fill="#f2f2f2"/><path d="m190.108 182.892c-31.707 48.877-23.019 111.043-23.019 111.043s60.095-17.08 91.803-65.957c31.707-48.878 23.019-111.043 23.019-111.043s-60.095 17.08-91.803 65.957z" fill="#3f3d56"/><path d="m166.991 292.935s-.776-.123-2.205-.411c-1.14-.23-2.709-.559-4.626-1.011-17.131-4.02-62.6751-17.609-92.4517-53.337-37.2682-44.738-35.6988-107.241-35.6988-107.241s56.9843 9.215 94.5335 49.391c1.627 1.726 3.21 3.515 4.749 5.368 32.428 38.926 35.451 91.301 35.691 104.248.033 1.941.008 2.993.008 2.993z" fill="#222f65"/><path clip-rule="evenodd" d="m143.892 182.892c31.707 48.877 23.019 111.043 23.019 111.043s-60.095-17.08-91.8027-65.957c-31.7074-48.878-23.0195-111.043-23.0195-111.043s60.0952 17.08 91.8032 65.957z" fill-rule="evenodd" stroke="#3f3d56" stroke-width="2"/><path d="m167 290.991c-.84 1.015-1.581 1.882-2.19 2.591-1.351 1.544-2.117 2.353-2.117 2.353s-.93-1.172-2.494-3.368c-8.589-12.001-36.215-54.673-34.082-103.964.115-2.584.305-5.14.568-7.668 1.622 1.733 3.201 3.53 4.735 5.39 32.327 39.081 35.341 91.666 35.58 104.666z" fill="#000" opacity=".1"/><path d="m214.883 192.216c-2.528 58.266-45.961 103.719-45.961 103.719s-39.334-49.015-36.805-107.281c2.528-58.266 45.961-103.7192 45.961-103.7192s39.334 49.0152 36.805 107.2812z" fill="#222f65"/><path d="m169 293.935 9-207.0002" stroke="#3f3d56" stroke-width="2"/><path d="m222.5 312.935c122.883 0 222.5-6.268 222.5-14s-99.617-14-222.5-14c-122.8834 0-222.5 6.268-222.5 14s99.6166 14 222.5 14z" fill="#3f3d56"/><path d="m37 293.935v-56z" fill="#3f3d56"/><path d="m37 293.935v-56" stroke="#3f3d56" stroke-width="2"/><g fill="#3f3d56"><path d="m37 245.935c4.4183 0 8-3.582 8-8s-3.5817-8-8-8-8 3.582-8 8 3.5817 8 8 8z"/><path d="m37 272.935s-1.1163-24.632-24-21.769z"/><path d="m228 202.935v-156.0002z"/></g><path d="m228 202.935v-156.0002" stroke="#3f3d56" stroke-width="2"/><path d="m228 58.9348c6.075 0 11-4.9249 11-11s-4.925-11-11-11-11 4.9249-11 11 4.925 11 11 11z" fill="#3f3d56"/><path d="m228 91.9348s-1.535-33.5884-33-29.6842z" fill="#3f3d56"/><path d="m358.286 116.935-9.377 17.635s-67.801 12.956-59.146 33.11c8.656 20.154 18.393 49.665 23.442 48.945 5.049-.719 32.819-16.555 33.901-21.233 1.082-4.679-24.885-26.632-24.885-26.632l42.917-8.278s6.131 28.792-1.803 48.586-12.623 73.418-7.213 74.138c5.409.72 19.114 5.038 25.245 1.08 6.131-3.959 9.016-90.694 9.016-90.694s12.983-56.863 5.049-63.341-37.146-13.316-37.146-13.316z" fill="#2f2e41"/><path d="m372.942 275.192s-8.378-4.424-10.142-.885c0 0 1.323 10.618-3.969 11.945s-7.497 10.617 0 11.502c7.496.885 12.347-1.769 14.993-1.769s0-9.291 0-9.291z" fill="#2f2e41"/><path d="m332.965 202.77s-9.129-2.561-10.11 1.285c0 0 3.528 10.134-1.37 12.559-4.899 2.425-5.101 12.005 2.42 11.282 7.521-.724 11.709-4.357 14.298-4.919 2.588-.561-1.955-9.112-1.955-9.112z" fill="#2f2e41"/><path d="m378.395 54.7935s.357 13.43-2.137 14.5189c-2.493 1.0889 13.892 7.6224 13.892 7.6224l2.85-5.0816s-3.206-18.1486-2.493-19.6005c.712-1.4519-12.112 2.5408-12.112 2.5408z" fill="#9f616a"/><path d="m384 57.9348c12.15 0 22-9.8497 22-22s-9.85-22-22-22-22 9.8497-22 22 9.85 22 22 22z" fill="#2f2e41"/><path d="m386 23.9348c4.971 0 9-4.0294 9-9 0-4.97055-4.029-8.99999-9-8.99999s-9 4.02944-9 8.99999c0 4.9706 4.029 9 9 9z" fill="#2f2e41"/><path d="m373.887 9.93481c0-4.60757 3.502-8.47095 8.113-8.951333-.313-.03234-.628-.048582-.943-.048663-5.002 0-9.057 4.029436-9.057 8.999996 0 4.97059 4.055 8.99999 9.057 8.99999.315-.0001.63-.0163.943-.0486-4.611-.4804-8.113-4.3438-8.113-8.95139z" fill="#2f2e41"/><path d="m383 61.9348c8.284 0 15-6.7157 15-15s-6.716-15-15-15-15 6.7157-15 15 6.716 15 15 15z" fill="#9f616a"/><path d="m394.251 66.7442s-12.954 3.9403-19.431 0-21.95 7.5225-24.469 12.5374c-2.519 5.015 9.355 10.03 9.355 10.03s-3.39 9.6843-2.698 14.5074c.719 5.015-.54 15.224-.54 15.224s31.79 20.85 38.862 11.463c1.08-1.433 10.076-35.1048 10.076-35.1048l12.594-12.5375s-7.916-11.4628-12.594-12.5374-11.155-3.5821-11.155-3.5821z" fill="#d0cde1"/><path d="m306.937 139.935s-24.253 12.838-19.26 16.506c4.994 3.668 25.323-14.305 25.323-14.305z" fill="#9f616a"/><path d="m402.922 130.873s-10.995-7.716-12.766-3.858c-1.77 3.858 12.039 12.547 14.947 9.147 2.907-3.4-2.181-5.289-2.181-5.289z" fill="#9f616a"/><path d="m411.768 77.9348 6.413 3.9883s21.733 30.4559 14.252 37.3449c-7.482 6.889-26.721 20.667-26.721 20.667s-6.413-9.427-4.276-9.79c2.138-.362 19.239-14.865 19.239-14.865l-14.963-28.2809z" fill="#d0cde1"/><path d="m354.179 76.9348-4.666 1.8105-12.205 22.0887-32.308 39.469s4.308 6.88 7.897 5.431c3.59-1.448 30.513-31.865 30.513-31.865l17.59-27.5195z" fill="#d0cde1"/><path d="m384.5 37.9348c8.56 0 15.5-4.0294 15.5-9 0-4.9705-6.94-9-15.5-9s-15.5 4.0295-15.5 9c0 4.9706 6.94 9 15.5 9z" fill="#2f2e41"/><path d="m282 223.935h71v71h-71z" fill="#222f65"/><path clip-rule="evenodd" d="m330.867 273.344c7.434 0 12.133-6.323 12.133-16.354 0-13.646-10.454-23.055-25.54-23.055-15.694 0-26.46 10.586-26.46 26.006 0 15.799 10.549 25.979 27.029 25.993 2.856.014 5.704-.295 8.491-.921 1.13-.273 1.836-1.398 1.59-2.534-.247-1.137-1.355-1.868-2.498-1.649-2.431.428-4.897.637-7.366.623-13.555 0-22.263-8.312-22.263-21.336 0-12.739 8.802-21.742 21.152-21.742 12.486 0 20.936 7.541 20.936 18.818 0 7.067-2.383 11.615-6.135 11.615-2.166 0-3.371-1.313-3.371-3.492v-17.505h-5.404v3.764h-.541c-1.246-2.749-4.076-4.427-7.407-4.427-6.487 0-10.929 5.266-10.929 12.834 0 7.879 4.415 13.172 11.023 13.172 3.711 0 6.473-1.719 7.814-4.86h.541c.502 3.019 3.399 5.05 7.205 5.05zm-14.558-5.199c-3.832 0-6.188-3.032-6.188-8.041 0-5.023 2.315-7.974 6.256-7.974 3.968 0 6.514 3.046 6.514 7.974 0 4.927-2.546 8.041-6.582 8.041z" fill="#fff" fill-rule="evenodd"/></svg>