<svg fill="none" height="1112" viewBox="0 0 1023 1112" width="1023" xmlns="http://www.w3.org/2000/svg"><path d="m318.635 37.6942c-119.938 100.5228-138.524 290.6038-219.7541 430.8328-28.2768 48.795-64.8142 92.465-83.8773 146.596-43.7655 123.903 16.4684 264.449 97.0894 362.858 38.443 46.949 83.347 89.959 137.677 109.739 41.78 15.22 86.578 15.85 130.555 16.25l770.465 7.93c86.02.87 181.6-2.28 243.45-68.69 42.63-45.732 59.94-112.518 74.64-176.266 18.05-78.331 34.42-163.398 6.32-238.004-32.09-85.358-113.24-133.73-163.65-207.385-81.81-119.332-79.93-299.824-184.11-395.0886-48.64-44.4623-112.82-61.8985-175.357-70.6166-117.899-16.4587-229.577 14.6094-345.358 10.2768-98.969-3.6986-205.986 2.7475-288.09 71.5676z" fill="#e7ecff" opacity=".5"/></svg>