<svg fill="none" height="36" viewBox="0 0 36 36" width="36" xmlns="http://www.w3.org/2000/svg"><path clip-rule="evenodd" d="m35.6226 22.2396c-.2288-.0909-.49-.034-.66.1439l-2.5625 2.6934v-15.99792h.003l2.445-2.63982c.2249-.24305.2101-.62287-.0333-.8478l-.0005-.00055-.88-.81897 1.2228-1.31991c.2246-.24333.2095-.62288-.0338-.84753l-2.64-2.44483c-.2431-.2249283-.6227-.2103725-.8476.032957l-4.266 4.605953h-20.76966c-.00193-1.65607-1.34391-2.99795-3.00009-2.99987h-.59986c-1.65619.00192-2.99816739 1.3438-3.00009 2.99987v25.79812c0 .3312.268616.5998.600128.5998h9.082672l-1.26013 1.513c-.21176.2548-.17716.633.07745.8448l2.76668 2.3033c.2546.2121.633.1775.8451-.0771l.0003-.0003 3.0709-3.6892c.212-.2554.3485-.5655.3936-.8945h10.9943l-3.606 3.7864c-.2282.2401-.2186.6199.0214.8481.1115.106.2596.1653.4137.1651h11.9998c.3315 0 .6001-.2686.6001-.5998v-12.5991c0-.2455-.1494-.4663-.3774-.5575zm-2.0629-16.18128-1.1599 1.25454v-.88241l.7199-.77997zm-2.3597-.09832v-.00851h.0071l1.0314-1.11339-1.7622-1.63025-6.1128 6.60559 1.7622 1.63026zm-6.2268 6.051-1.3802.4026.2947-1.4075zm8.8951-8.93505-1.7613-1.62942-.8155.88076 1.7617 1.63107zm-30.86781-.07744h.59985c.99426 0 1.80011.80579 1.80011 1.79998v22.81391c-.51636-.3971-1.14889-.6136-1.80011-.6158h-.59985c-.65149.0022-1.28375.2187-1.80011.6158v-22.81391c0-.99419.80585-1.79998 1.80011-1.79998zm.59985 25.19809h-.59985c-.99426 0-1.80011.8061-1.80011 1.8h4.20007c0-.9939-.80585-1.8-1.80011-1.8zm10.66076 3.1269-.384.4608-1.8443-1.5352.3834-.4614c.212-.2546.5902-.2892.8448-.0772.0003 0 .0003.0003.0006.0003l.922.7657c.2549.2118.2898.5899.078.8448l-.0005.0005zm-4.53161 1.6927 1.84461 1.5352 1.5353-1.8448-1.8443-1.5355zm5.59521-3.0196c-.0997-.1662-.2257-.3148-.3732-.4403l-.9221-.7673c-.764-.6361-1.8989-.5326-2.535.2315l-.8141.9761h-4.08008v-23.99817h19.65948l-3.1841 3.44066c-.0456.05136-.0819.11068-.1068.17467-.0072.0173-.0127.0335-.0187.05163-.0022.00687-.005.01378-.0077.02077-.0044.01119-.0088.0226-.0116.03443l-.7163 3.42451c-.0675.3243.1407.6421.465.7096.0964.0201.1961.0162.2903-.0112l3.3602-.9791c.0084-.0027.016-.0065.0236-.0103.0066-.0033.0132-.0065.0201-.009.0151-.0054.0307-.0131.047-.0211.0672-.0305.1282-.0736.1799-.1266l4.5997-4.97068v18.60998l-3.486 3.6599zm9.475 4.7994h10.0003v-10.4992zm4.0008-1.1998c-.2428 0-.4617-.1461-.5545-.3702s-.0415-.4823.1302-.654l4.2001-4.1994c.1123-.1126.265-.1758.424-.1758.3313 0 .6002.2683.6002.5998v4.1998c0 .3312-.2687.5998-.6002.5998zm3.5998-1.2v-2.1515l-2.1517 2.1515zm-10.2002-9.5991h4.1998c.3315 0 .6001.2685.6001.5998 0 .3314-.2686.6-.5999.6h-16.79997c-.33151 0-.60013-.2686-.60013-.6 0-.3313.26862-.5998.60013-.5998h4.19977v-6.5996c.0006-.159.0635-.3117.1753-.4249l3.5999-3.5996c.2343-.2343.6141-.2343.8484 0l3.6 3.5996c.1123.1129.1757.2656.1766.4249zm-2.048-7.1997-2.1517-2.1515-2.1516 2.1515zm-5.1522 1.2h6.0002v5.9997h-6.0002zm2.3998-7.19924h1.2003v1.19994h-1.2003zm1.2003 15.59874h-1.2003v1.1999h1.2003z" fill="#000" fill-rule="evenodd"/></svg>